<?xml version="1.0" ?><svg style="enable-background:new 0 0 100 100;" version="1.1" viewBox="0 0 100 100" xml:space="preserve" xmlns="http://www.w3.org/2000/svg" xmlns:xlink="http://www.w3.org/1999/xlink"><g id="Layer_1"/><g id="Layer_2"/><g id="Layer_3"/><g id="Layer_4"/><g id="Layer_5"/><g id="Layer_6"/><g id="Layer_7"><g><path d="M2,100h0.459c0.36,0,0.719-0.032,1.073-0.097l21.02-3.822c0.06-0.011,0.119-0.016,0.179-0.016    c0.225,0,0.446,0.076,0.625,0.219l3.549,2.839c0.709,0.567,1.59,0.876,2.499,0.876H92c4.418,0,8-3.582,8-8V8c0-4.418-3.582-8-8-8    H8C3.582,0,0,3.582,0,8v60.597c0,0.908,0.309,1.789,0.876,2.499l2.839,3.549c0.181,0.226,0.255,0.519,0.203,0.804l-3.822,21.02    C0.032,96.822,0,97.181,0,97.541V98C0,99.105,0.895,100,2,100z M2,97.541c0-0.239,0.022-0.48,0.065-0.716l3.822-21.02    c0.155-0.854-0.067-1.733-0.609-2.411l-2.839-3.549C2.156,69.493,2,69.049,2,68.597V8c0-3.308,2.692-6,6-6h84c3.308,0,6,2.692,6,6    v84c0,3.308-2.692,6-6,6H31.403c-0.452,0-0.896-0.156-1.249-0.438l-3.549-2.839c-0.53-0.424-1.195-0.657-1.874-0.657    c-0.179,0-0.36,0.016-0.537,0.048l-21.02,3.822C2.939,97.978,2.698,98,2.459,98H2V97.541z"/><path d="M17.5,28h65c0.55,0,1-0.45,1-1s-0.45-1-1-1h-65c-0.55,0-1,0.45-1,1S16.95,28,17.5,28z"/><path d="M17.5,44h65c0.55,0,1-0.45,1-1s-0.45-1-1-1h-65c-0.55,0-1,0.45-1,1S16.95,44,17.5,44z"/><path d="M17.5,36h65c0.55,0,1-0.45,1-1s-0.45-1-1-1h-65c-0.55,0-1,0.45-1,1S16.95,36,17.5,36z"/><path d="M17.5,52h65c0.55,0,1-0.45,1-1s-0.45-1-1-1h-65c-0.55,0-1,0.45-1,1S16.95,52,17.5,52z"/><path d="M17.5,68h65c0.55,0,1-0.45,1-1s-0.45-1-1-1h-65c-0.55,0-1,0.45-1,1S16.95,68,17.5,68z"/><path d="M17.5,60h65c0.55,0,1-0.45,1-1s-0.45-1-1-1h-65c-0.55,0-1,0.45-1,1S16.95,60,17.5,60z"/><path d="M17.5,17h22c0.55,0,1-0.45,1-1s-0.45-1-1-1h-22c-0.55,0-1,0.45-1,1S16.95,17,17.5,17z"/><circle cx="82.5" cy="74" r="1"/><circle cx="74.25" cy="74" r="1"/><circle cx="66" cy="74" r="1"/></g></g><g id="Layer_10"/><g id="Layer_8"/><g id="Layer_9"/><g id="Layer_11"/><g id="Layer_11_copy"/><g id="Layer_11_copy_2"/><g id="Layer_11_copy_3"/><g id="Layer_12"/><g id="Layer_12_copy"/><g id="Layer_12_copy_2"/><g id="Layer_12_copy_3"/><g id="Layer_13"/><g id="Layer_13_copy"/><g id="Layer_13_copy_2"/><g id="Layer_13_copy_3"/><g id="Layer_11_copy_4"/><g id="Layer_4_copy"/></svg>